<?xml version="1.0" encoding="utf-8"?>
<!-- Generator: Adobe Illustrator 26.1.0, SVG Export Plug-In . SVG Version: 6.00 Build 0)  -->
<svg version="1.1" id="Layer_1" xmlns="http://www.w3.org/2000/svg" x="0px"
     y="0px"
     viewBox="0 0 1920 1080" style="enable-background:new 0 0 1920 1080;" xml:space="preserve">
<style type="text/css">
	.st0{fill:#FFFFFF;}
</style>
    <g id="Layer_2_00000074440084183642851030000000593997833951422385_">
	<g id="Layer_1-2">
		<path class="st0" d="M1920,1080H0V0h1920V1080z"/>
        <path d="M709.4,467.9c64.9,27,115.3,58.4,157.7,96.6c0.8-6.5,1.4-9.4,1.4-12.3c0-46.9,0-93.9,0-140.8c0-17.3-11.6-24.1-48.9-26.4
			c-20.7-1.3-28.1-6-28.1-14.7c0-61.5-0.2-123.1-0.5-184.6c0-9.1,7.7-16.1,30.7-15.5c20.7,0.6,25.8,7.2,25.7,15.6
			c-0.4,41.2-0.2,82.4-0.6,123.6c0,5,1.5,9.7,8.4,13.7c8,4.4,22.4,5.1,32.2,1.5c2.9-1.1,5.2-2.5,6.7-4.1c3-4,4.5-8.3,4.2-12.5
			c0.2-40.1,0.3-80.1-0.4-120.2c0-9.4,6.3-16.7,28-16.8c22.3-0.1,27.6,7.6,27.6,16.7c-0.5,40.7-0.3,81.3-0.5,121.9
			c0,5.9,1.5,11.5,12.5,15.3c7.2,2.5,17.2,2.7,24.9,0.5c12.4-3.1,14.3-8.2,14.3-13.9c0-39.2-0.1-78.4-0.2-117.6c0-2.9-0.2-5.7,0-8.6
			c0.9-8.1,10.4-12.8,28.3-13.1c19.1-0.3,26.8,4.9,26.8,13.1c-0.1,62.4-0.2,124.8-0.2,187.1c0,9.1-12.3,12.2-29.7,13.5
			c-24.5,1.8-38.6,8.5-38.7,19.8c-0.4,50.9-0.2,101.9,0,152.8c0.5,2.4,1.3,4.8,2.4,7.1c36.8-33.9,85.8-64.8,145-91.3
			c-4.3-11.1-8.7-22.2-12.8-33.3c-14.6-39.8,33-70.9,118.7-77.8c89.8-7.3,89.8-7.3,155.4-34.3c13.1-1.6,23.9,0.5,26.2,6.4
			c14.5,36.8,15.1,73.5-20,108.2c-29.6,29.3-107,48.4-178.3,46.1c-13.8-0.5-27.6-0.8-43.2-1.2c-38.7,17.3-69,37.9-96.7,59.3
			c-42.3,32.5-80.3,66-94.2,103.8c-2.7,7.5-3.8,15.3-6.2,22.9c-3.7,13.6-29.1,23.9-59.4,24c-31.1,0.3-57.3-10.4-59.9-24.4
			c-14.5-70-88.4-127.5-184.4-180.3c-3.5-2-7.1-4-10.6-5.9c-15.6-1.9-30.2,0.9-45.2,1.4c-106.8,3.4-195.4-27.8-210.6-81.4
			c-6.5-22.4-6.5-45,0-67.4c3.5-11.5,14.9-15.1,35.2-9.5c42.5,11.7,89.1,18,135.9,24.8c113.8,16.4,152.8,49.7,124.5,103.9
			C712.2,462,711.2,464.5,709.4,467.9z"/>
        <path d="M1322.5,820.7l110.5,69.4c-24.7,10.2-50.9,17.9-82.4,20.7c-22.3,2-36.9-3.6-46.8-12.3c-17.4-15.2-34.9-30.3-52.5-45.5
			c-3.5-2.9-5-6.8-19.3-6.4V907c-34.4,3.6-70.1,3.6-104.5,0V738.7c33.3-4.4,65.8-4.2,102.5,0v61.4l7.2,0.7
			c11.7-10.7,23.5-21.5,35.2-32.3c3.5-3.3,5.9-7,10.4-10.1c9.9-7,9.5-19.2,30.3-20.3c34.2-2,69.9-3.4,106.4,2.9L1322.5,820.7z"/>
        <path d="M989.9,740l93.8,166.8c-36,3.8-69,4.4-102.3,0.5c-9.1-1.1-12-5.4-14.2-9.4c-4.9-9-10.4-17.9-15.4-26.8h-89.8
			c-5,8.9-11.3,17-13.8,25.3c-2.7,8.6-14.7,12-30.5,12.6c-23,0.9-46.5,1.8-72.3-2.5c8.2-14.2,16.5-28.3,24.6-42.4
			c22.8-39.4,45.6-78.7,68-118.1c2.6-4.7,6.1-8.4,17.5-8.5c40.3-0.2,80.7,0,121,0.1C980.5,737.6,984.5,739,989.9,740z"/>
        <path d="M514.4,860.6c7.1,1.4,12.2,2.5,17.3,3.4c35.5,6.7,66.3,0.2,72.3-16.8c7.9-22.6,2.2-45.4,2.8-67.9
			c-17.3-3.7-33.5-0.7-48.3-2.6c-15.7-9.9-15.6-28.2,1.5-39.4c44,0,89.3-0.1,134.6,0c11.8,0,15.9,3.7,15.9,8.7
			c0,41.7,0.9,83.5-0.5,125.2c-0.6,18.8-43.9,36.5-91.5,39.7c-27.3,2-55.3,1.4-82.1-1.7c-22.5-2.7-45.7-6.6-48.8-18.5
			C484.5,879.5,494.5,869.2,514.4,860.6z"/>
        <path class="st0"
              d="M874.1,841.2c10.4-18.3,20.3-35.6,30.2-52.9h6.9l25.8,52.4C916.1,842.8,896.7,842.1,874.1,841.2z"/>
	</g>
</g>
</svg>
