<svg xmlns="http://www.w3.org/2000/svg" viewBox="0 0 556.15 690.25"><defs><style>.cls-1{fill:#b3dbae;}.cls-2{fill:#fff;}.cls-3{fill:#79903a;}.cls-4{fill:#4e7d7a;}.cls-5{fill:#fdfdfc;}.cls-6{fill:#fcfdfb;}.cls-7{fill:#b2daae;}</style></defs><g id="Layer_2" data-name="Layer 2"><g id="Layer_1-2" data-name="Layer 1"><path class="cls-1" d="M555.06,690H4.6c-1.46,0-3.5.57-4.23-.16s-.16-2.76-.16-4.22V1.1H549.43c1.79,0,4.25-.48,5.18.46s.44,3.4.44,5.19Q555.06,348.4,555.06,690ZM277.63,203a.84.84,0,0,1-1.07-.87c-.06-1.45,0-2.92,0-4.38q0-39.4,0-78.83c0-1.57.29-3.15-.43-4.74-1.78-4-5.23-6.09-9.13-5.54-2.69.39-4.17,2.44-6,4-1.55,1.37-.82,3.07-.82,4.59q-.09,35,0,70.07v13.14c0,.74,0,1.5-1.1,1.41q0-15.58,0-31.19c0-2.81-.08-2.49-3-2.91-2.32-.35-4,1.24-6.12,1.25-2.95,0-3,.18-3,3.31q0,15.31,0,30.64c-2.12-.67-1-2.43-1-3.61q-.1-40.54-.06-81.1c0-1.1.07-2.2,0-3.29-.21-2.94-5.4-7.92-8-7.36a18.66,18.66,0,0,0-6,2.58c-1.42.92-1.81,2.8-2.45,4.41a17.26,17.26,0,0,0-1.06,6.69q.06,27.14,0,54.26c-.76.36-1.54.69-2.28,1.1-6.87,3.77-14.42,6.42-20.18,12.05-2.57-.21-3.36,2.38-5.09,3.48-4,2.55-7.15,6.35-10.85,9.43-1.46,1.22-2.43,3.41-4,4.81-5,4.5-8.27,10.45-12.25,15.78a5.73,5.73,0,0,0-1.27,4.91c-3.78-1-7.5-2.27-11.27-3.16a94.18,94.18,0,0,1-17.17-6.18c-4.78-2.17-9.26-4.95-14-7.27s-6.12-1.27-8.16,3.68a9.63,9.63,0,0,0-.91,5.07c.26,1.91-1.36,3.07-1.25,5,.75,13.57-1.17,27.23,2.11,40.76a104.73,104.73,0,0,0,4.26,14.7c4.89,12,9.09,15.69,19.34,23.14a56.9,56.9,0,0,0,13.86,7.59,11.51,11.51,0,0,0,0,3.27c2.11,6.78,4,13.62,7.27,20,2.23,4.39,4.44,8.76,6.86,13a101.65,101.65,0,0,0,11.46,16,116.6,116.6,0,0,0,24.47,21.4c5.2,3.43,18.39,10.51,26.39,13,3.39,1,6.76,2.18,10.13,3.28a1.94,1.94,0,0,0,0,.54,78,78,0,0,1,4.49,25,28.41,28.41,0,0,0,2.1,10c1.08,2.73,3.42,4.48,5.36,6.55,2.38,2.54,5.61,3.4,8.78,3.86,7.15,1,12.73-2.11,17-7.62,1.23-1.57,2.59-3.55,2.67-5.39.16-3.73,1.71-7.2,1.34-11.05-.51-5.25,1.56-10.22,2.58-15.3,1.75-1-.82-3.72,1.71-4.45,1.56.54,2.41-1.22,3.92-1.13,4.22.23,8.18-1.43,12.09-2.51a100.12,100.12,0,0,0,18.28-7.29c11.38-5.76,21.84-12.77,30.84-21.87a147.63,147.63,0,0,0,12.51-14.45,119.46,119.46,0,0,0,16.27-29.94c2.61-6.81,5.14-13.94,4.78-21.54.3-1.59,1.66-2.5,2.75-3.19,4.62-2.9,7.93-7,11.15-11.24,2.49-3.3,4.87-7,5.58-10.79,1-5.26,4.45-10,3.54-15.58,1.87-2.38.14-5.52,1.27-7.69,1.49-2.88.93-5.65.84-8.4-.23-7.71,1.17-15.5-1-23.12.84-3.45-1.32-6.54-1.22-10a4.23,4.23,0,0,0-3.31-3.94c-2.05-.54-4.11-1.21-5.95.7-2.78,2.9-5.78,5.59-8.48,8.57-5,5.48-11.44,8.12-18.32,10.05-.18-.89,1.14-1.53,1-1.64-2.29-1.62-2.65-4.45-4.17-6.54-3.58-5-7.49-9.71-11-14.64-4.4-6.11-11-9.62-15.61-15.26-4.08-1.84-7.2-5.11-11.24-7.17s-7.94-4.48-12.09-6.51A64.58,64.58,0,0,0,310,172.18c-.8-.18-1.68-2.07-1.69.43q0,15.87,0,31.74c0,11.13,0,22.26,0,33.39,0,.88.77,2.32-1.06,2.51V153.78q0-18.06,0-36.12c0-3.12-.52-5.62-4-7.11a8.73,8.73,0,0,0-9.27,1c-2.38,1.72-3.28,4.29-3.27,7.38.08,26.27,0,52.54,0,78.81,0,1.46,0,2.92,0,4.37a.84.84,0,0,1-1.07.87c0-8.95.05-17.9,0-26.85,0-3,.51-6.13-.32-9.16-3.08-.06-6.16-.17-9.23-.18-2.44,0-2.47,0-2.47,2.77Q277.63,186.24,277.63,203Zm48.25,322.64v32.9c0,6.58.05,13.16,0,19.74,0,1.63.38,2.3,2.09,2.13,1.22-.13,1.94,1.18,3.38,1.15,7.3-.17,14.61-.1,21.92-.06a4,4,0,0,0,2.87-1.09c1.45-1.22,1.59-2.64,1.59-4.32,0-11.15,0-22.3,0-33.45,0-.69-.17-1.49.76-1.74s1.32.37,1.81.91a5.63,5.63,0,0,1,.77,1.32c5.05,10,10.13,19.94,15.33,29.84,1.56,3,3.3,5.8,6.27,7.76a12.88,12.88,0,0,0,12.15,1.22c4.17-1.71,8.52-3.32,12.35-5.92,1.88-1.26,3.49-2.82,5.41-4.07,3.64-2.37,3.43-2.78.68-6.82-2-2.88-4-5.69-6.15-8.44-3.62-4.62-6.69-9.66-10.18-14.39-2.88-3.91-5.7-7.86-8.59-11.77-1.45-2-2.54-4.19-4.29-5.92,1.09-2.11,2.21-4.21,3.27-6.33.15-.29-.07-.8.1-1,5.3-7.37,8.83-15.75,13.51-23.48,3.52-5.82,6.32-12.06,10.1-17.74,1.06-1.61.25-4.1-1.58-4.15s-3.33-1.14-5-1.16c-8-.1-16.08-.06-24.12,0-1.39,0-3.31,1.59-4.17,2.94-1.57,2.45-2.34,5.25-3.55,7.85-4.42,9.51-9.16,18.87-13.73,28.31-.21.43,0,1.3-.53,1.35s-.61-.67-.61-1.21c0-1.83,0-3.66,0-5.49,0-9.68,0-19.37,0-29.06,0-2.21-1.64-4.61-3.47-4.64-3.72-.08-7.23-1.74-11.06-1.22a27.74,27.74,0,0,1-7.11,0c-2.58-.32-4.63,1.51-7.23,1.24-2.85-.29-2.91,0-2.91,2.79Q325.88,499.56,325.88,525.59Zm-60.77-55c-6,0-12.06,0-18.09,0-1.8,0-4.44,1.62-4.38,3.14.14,3.46-2,6.19-2.4,9.51-.4,3.52-1.74,6.92-2.64,10.39-1.29,4.95-2.54,9.91-3.83,14.87-.9,3.46-1.86,6.91-2.76,10.37-1.28,5-2.53,9.92-3.82,14.87-.9,3.46-1.87,6.91-2.77,10.37-1.28,5-2.52,9.92-3.81,14.88-.9,3.46-1.84,6.91-2.78,10.36-.81,3-1.31,6-2.64,8.79-.27.57-.57,2.13.83,2.09,3-.09,5.72,1.61,8.88,1.24a74.09,74.09,0,0,1,10.95-.06c3.08.11,5.83-1.16,8.3-2.47,1.58-.84,2.09-3.5,1.72-5.74,0-.22.64-.5.67-.79.42-4.13,2.54-7.88,2.62-12.1,0-2.3.93-3,3.34-3.05q10.42-.06,20.84,0c2.27,0,2.74.65,3.21,3.23.89,4.89,2.64,9.57,3.39,14.53a7.81,7.81,0,0,0,5.83,6.14c3.18.87,6.74-.42,9.91,1.28a1.9,1.9,0,0,0,1.6,0c3-1.81,6.29-1.07,9.44-1,2.54.07,4.82-.73,7.22-1.16,1-.18,1.28-1.05.93-1.52-1.94-2.59-2-5.8-2.88-8.69-1.53-4.88-2.52-9.94-3.64-14.95s-2.23-10.07-3.6-15c-1.67-6-3.38-12.13-5-18.18-1.74-6.6-4-13.17-4.59-20.06-2.15-1.58-.13-4.62-2.19-6.23.58-2.38-1.75-4.28-1.1-6.67-2.08-1.6-.13-4.62-2.19-6.22.55-2.38-1-4.39-1.31-6.65-.24-1.72-.4-4.37-3.15-5.2a10.36,10.36,0,0,0-3.13-.34C276.44,470.6,270.78,470.63,265.11,470.63Zm-58.75,46.5q0-20.56,0-41.12c0-3.9-1.53-5.37-5.53-5.38H163.57c-3,0-4.06.65-4.26,3.73-.15,2.32-1.69,4.21-1.28,6.68.38,2.31-.27,4.81.18,7.1.48,2.47.73,5,2,7.38.47.87.53,1.48,1.67,1.46,2.74-.07,5.49.1,8.22-.05,5.29-.29,5.79.72,5.58,5.3-.14,3.1.08,6.21,0,9.31-.4,10.08.82,20.18-1,30.26-1.07,6-5.79,10.78-11.79,11.16-4.73.3-8.83-1.42-12.84-3.43-1.1-.55-1.46-.87-2.43.11-3.91,4-5.62,9.1-6.84,14.15-1.09,4.47-.2,9.21,4,12.48,3.13,2.47,6.41,4.69,10.47,5.09,1.61.16,2.63,1.73,4.49,1.24,1.68-.44,3.38.58,5,.88,5.69,1,11.52,0,17-1.27a34.26,34.26,0,0,0,13.36-6.13c6.7-5.15,11.31-12.51,11.31-20.58Z"/><path class="cls-2" d="M555.06,690q0-341.62,0-683.27c0-1.79.5-4.24-.44-5.19s-3.39-.46-5.18-.46H.21c0-.37,0-1,0-1C1.67,0,3.14,0,4.6,0H556.15V690Z"/><path class="cls-3" d="M159.21,310.46a56.9,56.9,0,0,1-13.86-7.59c-10.25-7.45-14.45-11.15-19.34-23.14a104.73,104.73,0,0,1-4.26-14.7c-3.28-13.53-1.36-27.19-2.11-40.76-.11-2,1.51-3.13,1.25-5a9.63,9.63,0,0,1,.91-5.07c2-4.95,3.54-5.95,8.16-3.68s9.19,5.1,14,7.27a94.18,94.18,0,0,0,17.17,6.18c3.77.89,7.49,2.16,11.27,3.16a14,14,0,0,0,2.29,1.07,51.18,51.18,0,0,1,24,14.83c1.32,1.39,2.19,3.13,3.42,4.64,4.55,5.57,6.74,12.29,7.47,19.32a57,57,0,0,1-.07,14.76c-.76,4.69-.8,9.6-3,14.07-.72,1.46-.08,3.29,1.44,4.82,5.71,5.77,11.79,11.17,16.79,17.65,3.53,4.57,7,9.14,10.34,13.85a175.71,175.71,0,0,1,13.87,22.76c.47,1,1.79,1.86,1.34,3.3a2.05,2.05,0,0,0,.73.34c.08,0,.32-.24.32-.38,0-.91,0-1.83,0-2.74q0-47.43.05-94.85a20,20,0,0,0-1.12-5.58c-.65-2.26-1.62-4.5-3.64-5.55-2.21-1.15-4.07-3.65-7.16-2.6a4.31,4.31,0,0,1-2.17,0c-3.34-.74-6.86-2-7.68-5.45-.59-2.45-1.45-5-1.42-7.72.21-19.37.11-38.74.11-58.11q0-27.14,0-54.26a17.26,17.26,0,0,1,1.06-6.69c.64-1.61,1-3.49,2.45-4.41a18.66,18.66,0,0,1,6-2.58c2.62-.56,7.81,4.42,8,7.36.08,1.09,0,2.19,0,3.29q0,40.55.06,81.1c0,1.18-1.08,2.94,1,3.61a5,5,0,0,0,2.08,4.36,7.78,7.78,0,0,0,5,1.18c1.78-.05,2.29-1.59,3.45-2.33,1.67-1.06,1.58-2.67,1.53-4.31,1.09.09,1.1-.67,1.1-1.41V187.3q0-35,0-70.07c0-1.52-.73-3.22.82-4.59,1.83-1.61,3.31-3.66,6-4,3.9-.55,7.35,1.58,9.13,5.54.72,1.59.43,3.17.43,4.74q.06,39.42,0,78.83c0,1.46,0,2.93,0,4.38a.84.84,0,0,0,1.07.87c1.14,4.36,2.24,5.4,5.77,5.49,4,.1,5.07-.81,6.3-5.49a.84.84,0,0,0,1.07-.87c.06-1.45,0-2.91,0-4.37,0-26.27,0-52.54,0-78.81,0-3.09.89-5.66,3.27-7.38a8.73,8.73,0,0,1,9.27-1c3.44,1.49,4,4,4,7.11q0,18.06,0,36.12v86.47a4.19,4.19,0,0,1-1.63,4.1c-1.84.8-3.39,2.37-5.54,2.5-1.22.08-2.41-.18-3.69.35-6.31,2.62-8.87,6.29-8.88,13.16v94.82c0,1.1,0,2.2,0,3.29,0,.55.09,1.29.59,1.24s.32-.93.54-1.35c2.75-5.07,5.23-10.35,8.46-15.1,3.61-5.3,6.88-10.81,11-15.78,4.39-5.24,8.19-11,12.91-16,2.12-2.26,4.32-4.47,6.59-6.57a4.6,4.6,0,0,0,1.61-3.76c0-4.59-2.75-8.67-2.35-13.3-1.87-1.6-.25-3.94-1.09-5.57-1.06-2.05-1-4.07-1-6.17a56.87,56.87,0,0,1,.95-12.18,39.89,39.89,0,0,1,3.53-10.61c2.16-4,4.41-8,8.1-10.92,2.11-1.67,3.62-4,6-5.47,5.69-3.54,12.08-4.91,18.56-5.36a118.52,118.52,0,0,0,15.52-2.31c6.88-1.93,13.34-4.57,18.32-10.05,2.7-3,5.7-5.67,8.48-8.57,1.84-1.91,3.9-1.24,5.95-.7a4.23,4.23,0,0,1,3.31,3.94c-.1,3.43,2.06,6.52,1.22,10,2.18,7.62.78,15.41,1,23.12.09,2.75.65,5.52-.84,8.4-1.13,2.17.6,5.31-1.27,7.69.91,5.63-2.56,10.32-3.54,15.58-.71,3.79-3.09,7.49-5.58,10.79-3.22,4.25-6.53,8.34-11.15,11.24-1.09.69-2.45,1.6-2.75,3.19-.55,0-1.34-.24-1.61,0-2.76,2.77-6.43,3.84-9.81,5.48a34,34,0,0,1-12.34,3.28,20.78,20.78,0,0,0-4.07.7,17.68,17.68,0,0,1-10.14,0c-2.91-1-5.67-.72-8.44-.64-3.25.1-4.37,3.13-5.81,5.51a1.45,1.45,0,0,1-.39.39c-4.28,3.57-7.2,8.33-10.32,12.76a275.38,275.38,0,0,0-17.24,27.89,337.44,337.44,0,0,0-16,33.92c-1.17,2.89-2.8,6-2.48,9.39-2.53.73,0,3.42-1.71,4.45-1,5.08-3.09,10.05-2.58,15.3.37,3.85-1.18,7.32-1.34,11.05-.08,1.84-1.44,3.82-2.67,5.39-4.29,5.51-9.87,8.63-17,7.62-3.17-.46-6.4-1.32-8.78-3.86-1.94-2.07-4.28-3.82-5.36-6.55a28.41,28.41,0,0,1-2.1-10,78,78,0,0,0-4.49-25,1.94,1.94,0,0,1,0-.54,142.28,142.28,0,0,0-9-23.64,297.15,297.15,0,0,0-21.61-38.73,161.74,161.74,0,0,0-16.56-21.61c-.63-.66-1.57-1.18-1.88-2-.53-1.35-.86-2.88-2.58-2.86-1.38,0-2.94-.7-4.16.43a2.52,2.52,0,0,1-1.95.61c-2.38,0-4.81-.34-7.1.09s-4.18,0-6.23,0A47.89,47.89,0,0,1,159.21,310.46Z"/><path class="cls-4" d="M325.88,525.59q0-26,0-52.09c0-2.79.06-3.08,2.91-2.79,2.6.27,4.65-1.56,7.23-1.24a27.74,27.74,0,0,0,7.11,0c3.83-.52,7.34,1.14,11.06,1.22,1.83,0,3.46,2.43,3.47,4.64,0,9.69,0,19.38,0,29.06,0,1.83,0,3.66,0,5.49,0,.54.11,1.27.61,1.21s.32-.92.53-1.35c4.57-9.44,9.31-18.8,13.73-28.31,1.21-2.6,2-5.4,3.55-7.85.86-1.35,2.78-2.93,4.17-2.94,8,0,16.08-.07,24.12,0,1.69,0,3.18,1.12,5,1.16S412,474.37,411,476c-3.78,5.68-6.58,11.92-10.1,17.74-4.68,7.73-8.21,16.11-13.51,23.48-.17.24.05.75-.1,1-1.06,2.12-2.18,4.22-3.27,6.33,1.75,1.73,2.84,4,4.29,5.92,2.89,3.91,5.71,7.86,8.59,11.77,3.49,4.73,6.56,9.77,10.18,14.39,2.15,2.75,4.18,5.56,6.15,8.44,2.75,4,3,4.45-.68,6.82-1.92,1.25-3.53,2.81-5.41,4.07-3.83,2.6-8.18,4.21-12.35,5.92a12.88,12.88,0,0,1-12.15-1.22c-3-2-4.71-4.8-6.27-7.76-5.2-9.9-10.28-19.86-15.33-29.84a5.63,5.63,0,0,0-.77-1.32c-.49-.54-1-1.13-1.81-.91s-.76,1-.76,1.74c0,11.15,0,22.3,0,33.45,0,1.68-.14,3.1-1.59,4.32a4,4,0,0,1-2.87,1.09c-7.31,0-14.62-.11-21.92.06-1.44,0-2.16-1.28-3.38-1.15-1.71.17-2.12-.5-2.09-2.13.08-6.58,0-13.16,0-19.74Z"/><path class="cls-4" d="M265.11,470.63c5.67,0,11.33,0,17,0a10.36,10.36,0,0,1,3.13.34c2.75.83,2.91,3.48,3.15,5.2.31,2.26,1.86,4.27,1.31,6.65,2.06,1.6.11,4.62,2.19,6.22-.65,2.39,1.68,4.29,1.1,6.67,2.06,1.61,0,4.65,2.19,6.23.59,6.89,2.85,13.46,4.59,20.06,1.6,6.05,3.31,12.14,5,18.18,1.37,4.92,2.48,10,3.6,15s2.11,10.07,3.64,14.95c.9,2.89.94,6.1,2.88,8.69.35.47.11,1.34-.93,1.52-2.4.43-4.68,1.23-7.22,1.16-3.15-.09-6.44-.83-9.44,1a1.9,1.9,0,0,1-1.6,0c-3.17-1.7-6.73-.41-9.91-1.28a7.81,7.81,0,0,1-5.83-6.14c-.75-5-2.5-9.64-3.39-14.53-.47-2.58-.94-3.21-3.21-3.23q-10.43-.07-20.84,0c-2.41,0-3.3.75-3.34,3.05-.08,4.22-2.2,8-2.62,12.1,0,.29-.7.57-.67.79.37,2.24-.14,4.9-1.72,5.74-2.47,1.31-5.22,2.58-8.3,2.47a74.09,74.09,0,0,0-10.95.06c-3.16.37-5.84-1.33-8.88-1.24-1.4,0-1.1-1.52-.83-2.09,1.33-2.81,1.83-5.84,2.64-8.79.94-3.45,1.88-6.9,2.78-10.36,1.29-5,2.53-9.92,3.81-14.88.9-3.46,1.87-6.91,2.77-10.37,1.29-4.95,2.54-9.92,3.82-14.87.9-3.46,1.86-6.91,2.76-10.37,1.29-5,2.54-9.92,3.83-14.87.9-3.47,2.24-6.87,2.64-10.39.37-3.32,2.54-6.05,2.4-9.51-.06-1.52,2.58-3.13,4.38-3.14C253.05,470.61,259.08,470.63,265.11,470.63Zm-2.37,66.92c2.37,0,4.73,0,7.1,0,.93,0,1.45-.5,1.18-1.29a69.82,69.82,0,0,1-2.32-11.09c-.54-3.15-1.61-6.23-2.16-9.47s-2.16-6.51-2.1-10c0-.43-.48-.89-.78-1.3a9.33,9.33,0,0,0-.76-.78c-.21.24-.61.5-.59.71.45,3.78-2.71,6.79-2.22,10.56-2.19,3-1.92,6.82-3,10.19a70.88,70.88,0,0,0-2.4,9.93c-.4,2.2,0,2.52,2.1,2.55S260.74,537.55,262.74,537.55Z"/><path class="cls-2" d="M377.42,229.28a118.52,118.52,0,0,1-15.52,2.31c-6.48.45-12.87,1.82-18.56,5.36-2.34,1.46-3.85,3.8-6,5.47-3.69,2.93-5.94,7-8.1,10.92A39.89,39.89,0,0,0,325.75,264a56.87,56.87,0,0,0-.95,12.18c0,2.1-.07,4.12,1,6.17.84,1.63-.78,4,1.09,5.57-.4,4.63,2.34,8.71,2.35,13.3a4.6,4.6,0,0,1-1.61,3.76c-2.27,2.1-4.47,4.31-6.59,6.57-4.72,5-8.52,10.74-12.91,16-4.15,5-7.42,10.48-11,15.78-3.23,4.75-5.71,10-8.46,15.1-.22.42,0,1.31-.54,1.35s-.61-.69-.59-1.24c0-1.09,0-2.19,0-3.29V260.36c0-6.87,2.57-10.54,8.88-13.16,1.28-.53,2.47-.27,3.69-.35,2.15-.13,3.7-1.7,5.54-2.5a4.19,4.19,0,0,0,1.63-4.1c1.83-.19,1.06-1.63,1.06-2.51.06-11.13,0-22.26,0-33.39q0-15.87,0-31.74c0-2.5.89-.61,1.69-.43a64.58,64.58,0,0,1,14.22,5.34c4.15,2,8,4.44,12.09,6.51s7.16,5.33,11.24,7.17c4.63,5.64,11.21,9.15,15.61,15.26,3.55,4.93,7.46,9.68,11,14.64,1.52,2.09,1.88,4.92,4.17,6.54C378.56,227.75,377.24,228.39,377.42,229.28Z"/><path class="cls-2" d="M228.29,175.53c0,19.37.1,38.74-.11,58.11,0,2.77.83,5.27,1.42,7.72.82,3.42,4.34,4.71,7.68,5.45a4.31,4.31,0,0,0,2.17,0c3.09-1.05,5,1.45,7.16,2.6,2,1,3,3.29,3.64,5.55a20,20,0,0,1,1.12,5.58q-.1,47.43-.05,94.85c0,.91,0,1.83,0,2.74,0,.14-.24.4-.32.38a2.05,2.05,0,0,1-.73-.34c.45-1.44-.87-2.34-1.34-3.3A175.71,175.71,0,0,0,235,332.1c-3.3-4.71-6.81-9.28-10.34-13.85-5-6.48-11.08-11.88-16.79-17.65-1.52-1.53-2.16-3.36-1.44-4.82,2.21-4.47,2.25-9.38,3-14.07a57,57,0,0,0,.07-14.76c-.73-7-2.92-13.75-7.47-19.32-1.23-1.51-2.1-3.25-3.42-4.64a51.18,51.18,0,0,0-24-14.83,14,14,0,0,1-2.29-1.07,5.73,5.73,0,0,1,1.27-4.91c4-5.33,7.2-11.28,12.25-15.78,1.57-1.4,2.54-3.59,4-4.81,3.7-3.08,6.83-6.88,10.85-9.43,1.73-1.1,2.52-3.69,5.09-3.48,5.76-5.63,13.31-8.28,20.18-12.05C226.75,176.22,227.53,175.89,228.29,175.53Z"/><path class="cls-4" d="M206.36,517.13V555.5c0,8.07-4.61,15.43-11.31,20.58a34.26,34.26,0,0,1-13.36,6.13c-5.45,1.23-11.28,2.3-17,1.27-1.65-.3-3.35-1.32-5-.88-1.86.49-2.88-1.08-4.49-1.24-4.06-.4-7.34-2.62-10.47-5.09-4.17-3.27-5.06-8-4-12.48,1.22-5,2.93-10.2,6.84-14.15,1-1,1.33-.66,2.43-.11,4,2,8.11,3.73,12.84,3.43,6-.38,10.72-5.17,11.79-11.16,1.8-10.08.58-20.18,1-30.26.12-3.1-.1-6.21,0-9.31.21-4.58-.29-5.59-5.58-5.3-2.73.15-5.48,0-8.22.05-1.14,0-1.2-.59-1.67-1.46-1.27-2.34-1.52-4.91-2-7.38-.45-2.29.2-4.79-.18-7.1-.41-2.47,1.13-4.36,1.28-6.68.2-3.08,1.26-3.73,4.26-3.73h37.25c4,0,5.52,1.48,5.53,5.38Q206.38,496.58,206.36,517.13Z"/><path class="cls-2" d="M291.89,402.61c-.32-3.42,1.31-6.5,2.48-9.39a337.44,337.44,0,0,1,16-33.92,275.38,275.38,0,0,1,17.24-27.89c3.12-4.43,6-9.19,10.32-12.76a1.45,1.45,0,0,0,.39-.39c1.44-2.38,2.56-5.41,5.81-5.51,2.77-.08,5.53-.35,8.44.64a17.68,17.68,0,0,0,10.14,0,20.78,20.78,0,0,1,4.07-.7,34,34,0,0,0,12.34-3.28c3.38-1.64,7-2.71,9.81-5.48.27-.27,1.06,0,1.61,0,.36,7.6-2.17,14.73-4.78,21.54a119.46,119.46,0,0,1-16.27,29.94A147.63,147.63,0,0,1,357,369.81c-9,9.1-19.46,16.11-30.84,21.87A100.12,100.12,0,0,1,307.9,399c-3.91,1.08-7.87,2.74-12.09,2.51C294.3,401.39,293.45,403.15,291.89,402.61Z"/><path class="cls-2" d="M159.21,310.46a47.89,47.89,0,0,0,15.52,2.32c2.05,0,4.07.37,6.23,0s4.72-.1,7.1-.09a2.52,2.52,0,0,0,1.95-.61c1.22-1.13,2.78-.42,4.16-.43,1.72,0,2.05,1.51,2.58,2.86.31.78,1.25,1.3,1.88,2a161.74,161.74,0,0,1,16.56,21.61,297.15,297.15,0,0,1,21.61,38.73,142.28,142.28,0,0,1,9,23.64c-3.37-1.1-6.74-2.25-10.13-3.28-8-2.45-21.19-9.53-26.39-13a116.6,116.6,0,0,1-24.47-21.4,101.65,101.65,0,0,1-11.46-16c-2.42-4.29-4.63-8.66-6.86-13-3.25-6.37-5.16-13.21-7.27-20A11.51,11.51,0,0,1,159.21,310.46Z"/><path class="cls-5" d="M289.7,203c-1.23,4.68-2.27,5.59-6.3,5.49-3.53-.09-4.63-1.13-5.77-5.49q0-16.71,0-33.42c0-2.73,0-2.78,2.47-2.77,3.07,0,6.15.12,9.23.18.83,3,.29,6.11.32,9.16C289.75,185.05,289.7,194,289.7,203Z"/><path class="cls-6" d="M259,201.85c.05,1.64.14,3.25-1.53,4.31-1.16.74-1.67,2.28-3.45,2.33a7.78,7.78,0,0,1-5-1.18,5,5,0,0,1-2.08-4.36q0-15.31,0-30.64c0-3.13,0-3.3,3-3.31,2.15,0,3.8-1.6,6.12-1.25,2.88.42,3,.1,3,2.91Q259,186.26,259,201.85Z"/><path class="cls-7" d="M262.74,537.55c-2,0-4,0-6,0s-2.5-.35-2.1-2.55a70.88,70.88,0,0,1,2.4-9.93c1.13-3.37.86-7.18,3-10.19-.49-3.77,2.67-6.78,2.22-10.56,0-.21.38-.47.59-.71a9.33,9.33,0,0,1,.76.78c.3.41.79.87.78,1.3-.06,3.52,1.52,6.69,2.1,10s1.62,6.32,2.16,9.47A69.82,69.82,0,0,0,271,536.27c.27.79-.25,1.3-1.18,1.29C267.47,537.53,265.11,537.55,262.74,537.55Z"/></g></g></svg>