<svg xmlns="http://www.w3.org/2000/svg" viewBox="0 0 556.15 690.25">
    <defs>
        <style>
            .cls-1{fill:#b3dbae;}.cls-2{fill:#fff;}.cls-3{fill:#79903a;}.cls-4{fill:#4e7d7a;}.cls-5{fill:#fdfdfc;}.cls-6{fill:#fcfdfb;}.cls-7{fill:#ebf5ea;}.cls-8{fill:#b2daae;}
        </style>
    </defs>
    <g id="Layer_2" data-name="Layer 2">
        <g id="Layer_1-2" data-name="Layer 1">
            <path class="cls-1"
                  d="M554.78,690.25H0V1.38C1.9.36,4,.86,5.92.86q271.34,0,542.67,0c2,0,4-.34,6,.37,1.34,1.8.71,3.88.71,5.81q0,338.92,0,677.84C555.3,686.66,555.76,688.54,554.78,690.25Z"/>
            <path class="cls-2"
                  d="M554.78,690.25V1.38H0c1.22-2.3,3.33-1,4.93-1Q280.41.25,555.87.28q0,342.51-.06,685C555.81,686.91,557.07,689,554.78,690.25Z"/>
            <path class="cls-3"
                  d="M259,202.23c1.72-10.87.57-21.79.67-32.69.16-16.24-.11-32.5-.25-48.74-.05-6.25,1.3-11.9,8.85-11.75,7.28.14,8.21,5.8,8.18,11.76q-.21,38.07-.24,76.14c0,2.09-.82,4.42,1,6.25,2.31,0,3.45,2.49,6.1,2.8,2.37.47,3.73-2.75,6.36-2.68,2.15-10.82.72-21.74.87-32.61.23-16.61,0-33.22-.21-49.83-.07-6.1,1.86-10.76,8.49-11.1,7.19-.37,8.55,4.85,8.54,10.68q-.13,49.58-.31,99.13c0,6.94,0,13.87,0,20.81,1.86,2.59.3,4.48-1.44,6.16a12.71,12.71,0,0,1-5.84,2.82c-7.85,2.13-10.11,5-10.17,13.26-.12,18.07,0,36.14-.05,54.21,0,11.49.07,23-.05,34.12,8.79-15.37,19-30.2,31.74-43,4.09-4.12,5.32-8,3.85-13.63C322.5,284.05,321,273.66,323.3,263c3.4-15.65,16.62-32.6,37.52-33.44,3.85-.15,7.56-1.16,11.39-1.29,1.81-.07,3.68-.55,5.05,1.18,9.62-2.23,17.09-7.69,23.35-15.18,2.13-2.54,4.18-5.86,8.51-4.49,3.91,1.24,4.13,4.65,4.64,7.9,3.48,22.08,2.88,43.81-5.55,64.87-3.44,8.6-10.11,14.54-16.89,20.39a4.42,4.42,0,0,1-1.44,2,14.43,14.43,0,0,1-6.14,5.24c-10.46,5-21.41,7.16-32.94,5.49-4.54-.66-7.76.31-10.94,4.11-19,22.67-32.83,48.22-43.63,75.56a22.41,22.41,0,0,1-4.49,7.41c-3.09,7.22-4.24,14.8-4.55,22.6-.53,13.55-7.66,21.56-18.86,21.45-11-.12-18.06-8.47-18.32-21.94-.16-8.4-2.07-16.43-4.65-24.35-5.66-5.2-6.57-12.81-9.65-19.31-10.88-22.94-22.77-45.21-40.21-64a8.64,8.64,0,0,0-2.92-2.39c-7.49.42-15.45,1.19-23.43.43-3.87-.37-7.67-.75-10.12-4.34-26.79-10-37.33-31.12-39.45-57.83a151.54,151.54,0,0,1,1-35.41c1.21-7.8,4.86-10.07,11.59-5.92,12.41,7.66,26,12,40,15.53,2.71-1.68,5.38-.6,7.87.42,18,7.32,32.75,24.49,31.86,45.4-.29,6.76-.42,13.49-2.1,20.07a8.32,8.32,0,0,0,2.56,8.89,159.08,159.08,0,0,1,19.91,22.52,293.68,293.68,0,0,1,16.47,25.16c0-28,0-55.78,0-83.53a31.55,31.55,0,0,0-.75-8.7,10.32,10.32,0,0,0-8.77-7.92c-9.8-1.8-13.24-5.62-13.39-15.42-.25-17-.07-34-.1-51a11.66,11.66,0,0,1,2.26-7.14c.09-17.88.16-35.76.3-53.64a50.28,50.28,0,0,1,.65-6.47c.76-5.53,4.5-8.19,9.53-7.61,4.84.55,7.3,4.09,7.28,9.3q-.21,39.69-.17,79.39c0,2.08-.82,4.41,1,6.24,2.3,0,3.44,2.53,6,2.71C255.36,206.31,256.23,202.49,259,202.23Z"/>
            <path class="cls-4"
                  d="M357.2,541.34v39.55c-11,1.48-21,1.68-31.43-.46v-109a63.78,63.78,0,0,1,31.11.23v38.44l1.53.25C363.52,499.61,369,489,373.61,478c2.38-5.61,5.79-7.84,11.66-7.45,8.59.57,17.45-1.22,26.52,3-9.56,17.34-18.85,34.19-28.19,51.11l32,44.34c-6.78,6.64-14.34,11.53-23.35,13.59-6.82,1.57-12-1.31-15.22-7.68-4.95-9.72-10.09-19.35-15.18-29C361.07,544.33,360.84,542.3,357.2,541.34Z"/>
            <path class="cls-4"
                  d="M275.3,557.61H249.94c-1.45,5.67-3.09,11.22-4.22,16.86-.69,3.49-2.3,5.68-5.74,6.4a52.83,52.83,0,0,1-25.11-.8l28.54-109c14.92-.26,28.86-.87,43.34.43,9.25,36.25,18.4,72.14,27.78,108.9-10.5,1.93-20.59,3.24-30.74.16-2.67-.81-3.57-3.39-4.2-6C278.23,568.94,276.77,563.36,275.3,557.61Z"/>
            <path class="cls-2"
                  d="M377.26,229.41c-6.67,1-13.3,2.4-20,2.87-20.8,1.47-36,26.31-32.36,48.56,1,6.19,2.66,12.27,4,18.42a6.54,6.54,0,0,1-2.13,6.37,201.35,201.35,0,0,0-38.56,53.57c-1.73-1.53-.85-3.43-.85-5q-.1-45.75-.05-91.51c0-9.91,2.8-13.5,12.38-15.52,3.9-.82,6.85-2.43,7.48-6.75,1.65-2.1,1-4.57,1-6.88,0-20.25,0-40.5,0-61.53,12.05,2.88,22.29,8.29,31.92,14.71a113.36,113.36,0,0,1,36.25,38.78C377,226.69,378.32,227.77,377.26,229.41Z"/>
            <path class="cls-2"
                  d="M227.93,176q.15,28.5.3,57c0,10.78,1.43,12.4,12,14.12,7.29,1.2,10.72,6.33,10.77,13,.26,32.65.12,65.32.12,99.65-12-23.62-26.31-43.67-45.19-60.52,3.46-14.82,6.72-29.78.13-44.29s-18.62-23.33-33.87-27.74c1.59-7.69,7.09-13,11.8-18.66A116.68,116.68,0,0,1,227.93,176Z"/>
            <path class="cls-4"
                  d="M174.64,497.68H160.93c-4.26-9-4.07-17.57-.31-26.95,13.77,0,27.41-.11,41,.08,3.25.05,4.52,2.55,4.51,5.73,0,27,.49,54.06-.31,81.06-.35,11.59-8.38,18.94-19.08,23.06-11,4.25-22.19,3.91-33.3.78-17.21-4.85-16.09-19.91-5-31.93.35,0,.78-.14,1.05,0,13.44,7.91,26.69,4,25.9-17.66-.38-10.58-.11-21.18-.16-31.77A14.19,14.19,0,0,0,174.64,497.68Z"/>
            <path class="cls-2"
                  d="M291.74,402.68c2.76-13.27,9-25.12,15.15-37,9.78-19,21.16-36.89,36.22-53.13,16.53,3.14,32.58,1.11,47.12-8.7l.62.71-.38.87c-4.76,30.27-20,54.32-43.7,73.26C330.62,391.62,312,399.13,291.74,402.68Z"/>
            <path class="cls-2"
                  d="M159,310.82c11.54,3.76,23.23,3.24,35.27.86,22.94,26.28,40.22,55.65,51.06,88.76-41.45-12-69.81-38-84-79C160.22,318,159.8,314.35,159,310.82Z"/>
            <path class="cls-5"
                  d="M289.7,203.32c-.8,3.52-3.17,5.29-6.63,5.15a5.66,5.66,0,0,1-5.83-5.27V167.74c4.25-1.27,7.92-.89,12.46.37Z"/>
            <path class="cls-6"
                  d="M259,202.23c-.28,3.83-2.46,6.06-6.16,6.23-3.4.15-5.75-1.66-6.32-5.26V170.58c3.88-1.92,7.56-2.37,12.48-2.43Z"/>
            <path class="cls-7" d="M390.47,305.44l-.24-1.58,1.09-1C391,303.75,390.76,304.59,390.47,305.44Z"/>
            <path class="cls-8"
                  d="M270.68,537.18H253.9c2.85-11.15,5.56-21.77,8.27-32.39l1.3-.18C265.82,515.24,268.18,525.87,270.68,537.18Z"/>
        </g>
    </g>
</svg>